# xmcd CD database file
#
# Track frame offsets:
#	150
#	42134
#	85969
#	128866
#	172462
#	216497
#
# Disc length: 3467 seconds
#
# Revision: 4
# Processed by: cddbd v1.5.2PL0 Copyright (c) Steve Scherf et al.
# Submitted via: CDex 1.51
#
DISCID=590d8906
DTITLE=FlowerMusic-Orquidea - FlowerMusic-Orquidea
DYEAR=1997
DGENRE=New Age
TTITLE0=Fragrance of the Country
TTITLE1=Origin of Fragrance
TTITLE2=Flowers of Nobility
TTITLE3=Royal Fragrance
TTITLE4=A Beautiful Lady from Empty Valleys
TTITLE5=Supreme Fragrance in the World
EXTD=YEAR: 1997
EXTT0=
EXTT1=
EXTT2=
EXTT3=
EXTT4=
EXTT5=
PLAYORDER=
